HIERARCHY
ROOT Hips
{
  OFFSET 162.504 93.5283 38.9405
  CHANNELS 6 Xposition Yposition Zposition Zrotation Xrotation Yrotation
  JOINT Spine
  {
    OFFSET 0 6.79576 0
    CHANNELS 6 Xposition Yposition Zposition Zrotation Xrotation Yrotation
    JOINT Spine1
    {
      OFFSET 0 6.79575 0
      CHANNELS 6 Xposition Yposition Zposition Zrotation Xrotation Yrotation
      JOINT Spine2
      {
        OFFSET 0 6.79575 0
        CHANNELS 6 Xposition Yposition Zposition Zrotation Xrotation Yrotation
        JOINT Spine3
        {
          OFFSET 0 6.79575 0
          CHANNELS 6 Xposition Yposition Zposition Zrotation Xrotation Yrotation
          JOINT Neck
          {
            OFFSET 0.000724153 14.441 -0.000280182
            CHANNELS 6 Xposition Yposition Zposition Zrotation Xrotation Yrotation
            JOINT Head
            {
              OFFSET 0 9.17429 0
              CHANNELS 6 Xposition Yposition Zposition Zrotation Xrotation Yrotation
              End Site
              {
                OFFSET 0 17.2017 0
              }
            }
          }
          JOINT LeftShoulder
          {
            OFFSET 5.00086 16.9997 -0.00119088
            CHANNELS 6 Xposition Yposition Zposition Zrotation Xrotation Yrotation
            JOINT LeftShoulder2
            {
              OFFSET 6.5 0 0
              CHANNELS 6 Xposition Yposition Zposition Zrotation Xrotation Yrotation
              JOINT LeftArm
              {
                OFFSET 6.49999 -6.83546e-05 0.000520262
                CHANNELS 6 Xposition Yposition Zposition Zrotation Xrotation Yrotation
                JOINT LeftForeArm
                {
                  OFFSET 0 -37.9535 -2
                  CHANNELS 6 Xposition Yposition Zposition Zrotation Xrotation Yrotation
                  JOINT LeftHand
                  {
                    OFFSET 0 -30.0465 2.00001
                    CHANNELS 6 Xposition Yposition Zposition Zrotation Xrotation Yrotation
                    JOINT LeftHandThumb1
                    {
                      OFFSET -0.499998 -1.49999 2.65
                      CHANNELS 6 Xposition Yposition Zposition Zrotation Xrotation Yrotation
                      JOINT LeftHandThumb2
                      {
                        OFFSET 0 -3.80001 3.7
                        CHANNELS 6 Xposition Yposition Zposition Zrotation Xrotation Yrotation
                        JOINT LeftHandThumb3
                        {
                          OFFSET 0 -3 2.7
                          CHANNELS 6 Xposition Yposition Zposition Zrotation Xrotation Yrotation
                          End Site
                          {
                            OFFSET 0 -2.29999 1.8
                          }
                        }
                      }
                    }
                    JOINT LeftHandIndex
                    {
                      OFFSET 0 -1.90001 1.6
                      CHANNELS 6 Xposition Yposition Zposition Zrotation Xrotation Yrotation
                      JOINT LeftHandIndex1
                      {
                        OFFSET 0 -8.29999 1.9
                        CHANNELS 6 Xposition Yposition Zposition Zrotation Xrotation Yrotation
                        JOINT LeftHandIndex2
                        {
                          OFFSET 0 -4.5 0
                          CHANNELS 6 Xposition Yposition Zposition Zrotation Xrotation Yrotation
                          JOINT LeftHandIndex3
                          {
                            OFFSET 1.17535e-05 -3.4 0
                            CHANNELS 6 Xposition Yposition Zposition Zrotation Xrotation Yrotation
                            End Site
                            {
                              OFFSET -1.32239e-05 -2.6 0
                            }
                          }
                        }
                      }
                    }
                    JOINT LeftHandMiddle
                    {
                      OFFSET -0.249999 -2.20001 0.400001
                      CHANNELS 6 Xposition Yposition Zposition Zrotation Xrotation Yrotation
                      JOINT LeftHandMiddle1
                      {
                        OFFSET 0 -8.3 0.999999
                        CHANNELS 6 Xposition Yposition Zposition Zrotation Xrotation Yrotation
                        JOINT LeftHandMiddle2
                        {
                          OFFSET 0 -4.65 0
                          CHANNELS 6 Xposition Yposition Zposition Zrotation Xrotation Yrotation
                          JOINT LeftHandMiddle3
                          {
                            OFFSET 0 -3.3 0
                            CHANNELS 6 Xposition Yposition Zposition Zrotation Xrotation Yrotation
                            End Site
                            {
                              OFFSET 0 -2.69999 0
                            }
                          }
                        }
                      }
                    }
                    JOINT LeftHandRing
                    {
                      OFFSET -0.500003 -2.14999 -0.800001
                      CHANNELS 6 Xposition Yposition Zposition Zrotation Xrotation Yrotation
                      JOINT LeftHandRing1
                      {
                        OFFSET 0 -7.75 -0.200002
                        CHANNELS 6 Xposition Yposition Zposition Zrotation Xrotation Yrotation
                        JOINT LeftHandRing2
                        {
                          OFFSET 0 -3.8 0
                          CHANNELS 6 Xposition Yposition Zposition Zrotation Xrotation Yrotation
                          JOINT LeftHandRing3
                          {
                            OFFSET 0 -3.4 0
                            CHANNELS 6 Xposition Yposition Zposition Zrotation Xrotation Yrotation
                            End Site
                            {
                              OFFSET 0 -2.6 0
                            }
                          }
                        }
                      }
                    }
                    JOINT LeftHandPinky
                    {
                      OFFSET -0.750001 -1.75 -1.85
                      CHANNELS 6 Xposition Yposition Zposition Zrotation Xrotation Yrotation
                      JOINT LeftHandPinky1
                      {
                        OFFSET 0 -7.15 -0.999997
                        CHANNELS 6 Xposition Yposition Zposition Zrotation Xrotation Yrotation
                        JOINT LeftHandPinky2
                        {
                          OFFSET 0 -3.00001 0
                          CHANNELS 6 Xposition Yposition Zposition Zrotation Xrotation Yrotation
                          JOINT LeftHandPinky3
                          {
                            OFFSET 0 -2.35 0
                            CHANNELS 6 Xposition Yposition Zposition Zrotation Xrotation Yrotation
                            End Site
                            {
                              OFFSET 1.5034e-05 -2.1 0
                            }
                          }
                        }
                      }
                    }
                  }
                }
              }
            }
          }
          JOINT RightShoulder
          {
            OFFSET -4.99915 17.0003 0.00058007
            CHANNELS 6 Xposition Yposition Zposition Zrotation Xrotation Yrotation
            JOINT RightShoulder2
            {
              OFFSET -6.5 0 0
              CHANNELS 6 Xposition Yposition Zposition Zrotation Xrotation Yrotation
              JOINT RightArm
              {
                OFFSET -6.5 -0.000230881 -0.000174425
                CHANNELS 6 Xposition Yposition Zposition Zrotation Xrotation Yrotation
                JOINT RightForeArm
                {
                  OFFSET 0 -37.9535 -2
                  CHANNELS 6 Xposition Yposition Zposition Zrotation Xrotation Yrotation
                  JOINT RightHand
                  {
                    OFFSET 1.01187e-05 -30.0465 2.00001
                    CHANNELS 6 Xposition Yposition Zposition Zrotation Xrotation Yrotation
                    JOINT RightHandThumb1
                    {
                      OFFSET 0.499999 -1.50001 2.65
                      CHANNELS 6 Xposition Yposition Zposition Zrotation Xrotation Yrotation
                      JOINT RightHandThumb2
                      {
                        OFFSET 0 -3.8 3.7
                        CHANNELS 6 Xposition Yposition Zposition Zrotation Xrotation Yrotation
                        JOINT RightHandThumb3
                        {
                          OFFSET -1.24203e-05 -3 2.7
                          CHANNELS 6 Xposition Yposition Zposition Zrotation Xrotation Yrotation
                          End Site
                          {
                            OFFSET 0 -2.3 1.8
                          }
                        }
                      }
                    }
                    JOINT RightHandIndex
                    {
                      OFFSET 0 -1.9 1.6
                      CHANNELS 6 Xposition Yposition Zposition Zrotation Xrotation Yrotation
                      JOINT RightHandIndex1
                      {
                        OFFSET 0 -8.3 1.89999
                        CHANNELS 6 Xposition Yposition Zposition Zrotation Xrotation Yrotation
                        JOINT RightHandIndex2
                        {
                          OFFSET 0 -4.5 0
                          CHANNELS 6 Xposition Yposition Zposition Zrotation Xrotation Yrotation
                          JOINT RightHandIndex3
                          {
                            OFFSET 0 -3.4 0
                            CHANNELS 6 Xposition Yposition Zposition Zrotation Xrotation Yrotation
                            End Site
                            {
                              OFFSET 0 -2.6 0
                            }
                          }
                        }
                      }
                    }
                    JOINT RightHandMiddle
                    {
                      OFFSET 0.249993 -2.2 0.399997
                      CHANNELS 6 Xposition Yposition Zposition Zrotation Xrotation Yrotation
                      JOINT RightHandMiddle1
                      {
                        OFFSET 0 -8.30001 0.999999
                        CHANNELS 6 Xposition Yposition Zposition Zrotation Xrotation Yrotation
                        JOINT RightHandMiddle2
                        {
                          OFFSET 0 -4.65 0
                          CHANNELS 6 Xposition Yposition Zposition Zrotation Xrotation Yrotation
                          JOINT RightHandMiddle3
                          {
                            OFFSET -1.11e-05 -3.29999 0
                            CHANNELS 6 Xposition Yposition Zposition Zrotation Xrotation Yrotation
                            End Site
                            {
                              OFFSET 0 -2.7 0
                            }
                          }
                        }
                      }
                    }
                    JOINT RightHandRing
                    {
                      OFFSET 0.499999 -2.15 -0.800002
                      CHANNELS 6 Xposition Yposition Zposition Zrotation Xrotation Yrotation
                      JOINT RightHandRing1
                      {
                        OFFSET 0 -7.75 -0.200001
                        CHANNELS 6 Xposition Yposition Zposition Zrotation Xrotation Yrotation
                        JOINT RightHandRing2
                        {
                          OFFSET 0 -3.8 0
                          CHANNELS 6 Xposition Yposition Zposition Zrotation Xrotation Yrotation
                          JOINT RightHandRing3
                          {
                            OFFSET 0 -3.4 0
                            CHANNELS 6 Xposition Yposition Zposition Zrotation Xrotation Yrotation
                            End Site
                            {
                              OFFSET 0 -2.6 0
                            }
                          }
                        }
                      }
                    }
                    JOINT RightHandPinky
                    {
                      OFFSET 0.749997 -1.75 -1.85
                      CHANNELS 6 Xposition Yposition Zposition Zrotation Xrotation Yrotation
                      JOINT RightHandPinky1
                      {
                        OFFSET 0 -7.15 -1
                        CHANNELS 6 Xposition Yposition Zposition Zrotation Xrotation Yrotation
                        JOINT RightHandPinky2
                        {
                          OFFSET 0 -3 0
                          CHANNELS 6 Xposition Yposition Zposition Zrotation Xrotation Yrotation
                          JOINT RightHandPinky3
                          {
                            OFFSET 0 -2.35 0
                            CHANNELS 6 Xposition Yposition Zposition Zrotation Xrotation Yrotation
                            End Site
                            {
                              OFFSET 0 -2.1 0
                            }
                          }
                        }
                      }
                    }
                  }
                }
              }
            }
          }
        }
      }
    }
  }
  JOINT LeftUpLeg
  {
    OFFSET 10 0 0
    CHANNELS 6 Xposition Yposition Zposition Zrotation Xrotation Yrotation
    JOINT LeftLeg
    {
      OFFSET 0 -49.4477 -0.999997
      CHANNELS 6 Xposition Yposition Zposition Zrotation Xrotation Yrotation
      JOINT LeftFoot
      {
        OFFSET 0 -45.0523 -1.99999
        CHANNELS 6 Xposition Yposition Zposition Zrotation Xrotation Yrotation
        JOINT LeftToeBase
        {
          OFFSET 0 -7.5 12.5
          CHANNELS 6 Xposition Yposition Zposition Zrotation Xrotation Yrotation
          JOINT LeftFootToe
          {
            OFFSET 0 0 4
            CHANNELS 6 Xposition Yposition Zposition Zrotation Xrotation Yrotation
            End Site
            {
              OFFSET 0 0 0
            }
          }
        }
      }
    }
  }
  JOINT RightUpLeg
  {
    OFFSET -10 0 0
    CHANNELS 6 Xposition Yposition Zposition Zrotation Xrotation Yrotation
    JOINT RightLeg
    {
      OFFSET -1.52909e-05 -49.4477 -1.00001
      CHANNELS 6 Xposition Yposition Zposition Zrotation Xrotation Yrotation
      JOINT RightFoot
      {
        OFFSET 0 -45.0523 -2
        CHANNELS 6 Xposition Yposition Zposition Zrotation Xrotation Yrotation
        JOINT RightToeBase
        {
          OFFSET 0 -7.5 12.5
          CHANNELS 6 Xposition Yposition Zposition Zrotation Xrotation Yrotation
          JOINT RightFootToe
          {
            OFFSET 0 0 4
            CHANNELS 6 Xposition Yposition Zposition Zrotation Xrotation Yrotation
            End Site
            {
              OFFSET 0 0 0
            }
          }
        }
      }
    }
  }
}
MOTION
Frames:	3
Frame Time:	0.0111111
110.831 98.5993 13.6313 -2.58701 1.28787 -155.392 0 6.79575 -7.10543e-15 -1.16081 2.16664 6.57681 -1.42109e-14 6.79575 0 0.560147 0.752444 9.81751 1.42109e-14 6.79575 -1.42109e-14 0.765613 4.17116 6.77408 -7.10543e-15 6.79575 0 1.13534 7.61224 -0.0870677 0 14.441 -1.42109e-14 -3.61558 2.42482 7.3742 -1.42109e-14 9.17427 0 -8.91623 4.90237 17.5172 5 17 -2.84217e-14 0.00282044 -0.00963123 -2.35894 6.5 -1.42109e-14 1.42109e-14 0.00338243 -0.00530552 -2.35895 6.5 -1.42109e-14 0 11.7825 -8.12729 2.05194 0 -37.9535 -2 -102.397 -61.0726 -65.1299 -1.42109e-14 -30.0465 2 23.8415 -7.85471 -7.88718 -0.5 -1.5 2.65 2.29666 -10.703 2.63851 -1.42109e-14 -3.8 3.7 0.134363 8.97594 0.00311064 0 -3 2.7 -0.0910063 -0.308913 -0.119014 0 -1.9 1.6 -2.12454e-06 4.81391e-06 -1.18067e-06 1.42109e-14 -8.3 1.9 -0.951561 -7.83873 -0.0303023 -1.42109e-14 -4.5 0 -0.000372569 0.00565154 -1.6459e-06 0 -3.4 0 4.01642e-07 0.00557949 -1.48306e-06 -0.25 -2.2 0.4 -2.12454e-06 4.81391e-06 -1.18067e-06 -1.42109e-14 -8.3 1 -4.2816 -6.89009 -0.170126 0 -4.65 1.42109e-14 -8.99413e-05 1.00334e-05 -1.97997e-07 -1.42109e-14 -3.3 1.42109e-14 -9.41844e-07 -4.83284e-06 -1.91613e-07 -0.5 -2.15 -0.8 -2.12454e-06 4.81391e-06 -1.18067e-06 0 -7.75 -0.2 -8.60714 -7.8883 -0.382111 0 -3.8 1.42109e-14 -2.21864e-06 5.15961e-06 2.89604e-06 0 -3.4 0 3.18055e-15 -3.18055e-15 1.59028e-15 -0.75 -1.75 -1.85 -2.12454e-06 4.81391e-06 -1.18067e-06 0 -7.15 -1 -4.46266 -13.8757 -0.0953066 0 -3 0 -0.00287614 -0.00180922 0.193032 0 -2.35 1.42109e-14 -0.00291372 -0.207609 0.00104273 -5 17 -2.84217e-14 5.88159e-05 -0.00101815 2.49639 -6.5 1.42109e-14 0 0.000318589 -0.00555521 2.49642 -6.5 1.42109e-14 -1.42109e-14 -9.38426 -10.8555 -2.52195 -1.42109e-14 -37.9535 -2 110.085 -72.3528 100.447 7.10543e-15 -30.0465 2 4.67733 4.00707 30.0711 0.5 -1.5 2.65 -7.39512 -6.11085 -9.55827 -1.42109e-14 -3.8 3.7 -0.02412 9.23273 8.56437e-05 0 -3 2.7 -0.00148546 -0.0432705 0.000394421 0 -1.9 1.6 -1.59028e-15 1.59028e-15 -3.18055e-15 0 -8.3 1.9 1.48868 -10.2363 0.0682096 0 -4.5 1.42109e-14 0.000242591 -0.00776492 0.000543514 0 -3.4 -1.42109e-14 -1.56814e-05 -0.00767571 -0.00972025 0.25 -2.2 0.4 -1.59028e-15 1.59028e-15 -3.18055e-15 0 -8.3 1 0.859236 -7.78779 0.0014639 0 -4.65 0 0.109409 0.00144755 -0.00433351 -1.42109e-14 -3.3 0 -2.03034e-05 -0.000580554 -0.0125374 0.5 -2.15 -0.8 -1.59028e-15 1.59028e-15 -3.18055e-15 0 -7.75 -0.2 2.321 -12.4839 -0.0229248 1.42109e-14 -3.8 0 0.532471 -0.0059416 -0.011867 1.42109e-14 -3.4 -1.42109e-14 0.470577 -0.00588508 -0.0111915 0.75 -1.75 -1.85 -1.59028e-15 1.59028e-15 -3.18055e-15 1.42109e-14 -7.15 -1 1.43417 -9.92489 -0.0858451 0 -3 0 0.00877082 0.00228274 0.0033121 0 -2.35 1.42109e-14 0.00876993 0.00225376 0.00165755 10 0 0 -2.97223 -23.197 11.4607 0 -49.4477 -1 -1.15194 29.8579 -12.3687 -1.42109e-14 -45.0523 -2 8.60284 -4.055 4.69883 0 -7.5 12.5 -4.82691e-07 -2.04413e-06 -4.97624e-06 0 0 4 -7.97889 5.06983 0.00177814 -10 0 -7.10543e-15 -11.6112 -17.7711 -8.89776 1.42109e-14 -49.4477 -1 0.259898 23.7573 -1.55133 0 -45.0523 -2 6.47046 -2.32316 -0.722342 0 -7.5 12.5 5.15633e-10 -1.24354e-09 -0 0 1.0842e-19 4 -3.02925 1.45969 0.00355023 
110.863 98.6586 13.5292 -2.66098 1.26523 -155.225 0 6.79575 0 -1.27766 2.17636 6.64645 0 6.79575 0 0.5284 0.713424 9.81742 -1.42109e-14 6.79575 -1.42109e-14 0.76357 4.04878 6.75239 0 6.79575 0 1.13789 7.55642 -0.104048 0 14.441 0 -3.64294 2.51153 7.41149 0 9.17427 -1.42109e-14 -9.0008 5.09464 17.6181 5 17 -2.84217e-14 0.00283146 -0.00963168 -2.29335 6.5 -2.84217e-14 1.42109e-14 0.00337295 -0.00530188 -2.29226 6.5 0 -1.42109e-14 11.8248 -7.82805 2.30148 3.55271e-15 -37.9535 -2 -103.361 -60.6487 -66.3166 0 -30.0465 2 23.8367 -7.79617 -8.07668 -0.5 -1.5 2.65 2.50487 -11.1574 2.80462 1.42109e-14 -3.8 3.7 0.124945 8.94501 0.000133084 1.42109e-14 -3 2.7 -0.0910153 -0.313253 -0.119014 0 -1.9 1.6 -2.12454e-06 4.81391e-06 -1.18067e-06 0 -8.3 1.9 -0.920025 -7.83537 -0.0303021 -1.42109e-14 -4.5 1.42109e-14 -0.000372569 0.00565154 -1.6459e-06 1.42109e-14 -3.4 -1.42109e-14 4.01642e-07 0.00557949 -1.48306e-06 -0.25 -2.2 0.4 -2.12454e-06 4.81391e-06 -1.18067e-06 1.42109e-14 -8.3 1 -4.24894 -6.88679 -0.170125 1.42109e-14 -4.65 -1.42109e-14 -8.99413e-05 1.00334e-05 -1.97997e-07 0 -3.3 1.42109e-14 -9.41844e-07 -4.83284e-06 -1.91613e-07 -0.5 -2.15 -0.8 -2.12454e-06 4.81391e-06 -1.18067e-06 1.42109e-14 -7.75 -0.2 -8.56426 -7.82621 -0.377477 1.42109e-14 -3.8 1.42109e-14 -2.21864e-06 5.15961e-06 2.89604e-06 -1.42109e-14 -3.4 -1.42109e-14 -6.36111e-15 -4.77083e-15 -7.95139e-16 -0.75 -1.75 -1.85 -2.12454e-06 4.81391e-06 -1.18067e-06 0 -7.15 -1 -4.4136 -13.8679 -0.0896808 0 -3 0 -0.00287614 -0.00180922 0.193032 0 -2.35 1.42109e-14 -0.00291372 -0.207609 0.00104273 -5 17 -1.42109e-14 5.76734e-05 -0.00101819 2.4321 -6.5 0 1.42109e-14 0.000339816 -0.00545399 2.43454 -6.5 0 0 -9.52212 -10.538 -2.39699 0 -37.9535 -2 110.276 -71.9001 100.457 0 -30.0465 2 4.61033 3.88288 29.9343 0.5 -1.5 2.65 -7.41644 -6.15098 -9.56712 1.42109e-14 -3.8 3.7 -0.02412 9.19785 8.56353e-05 0 -3 2.7 -0.00148546 -0.0432705 0.000394421 0 -1.9 1.6 1.59028e-15 3.18055e-15 -3.18055e-15 0 -8.3 1.9 1.48867 -10.2272 0.0682076 -1.42109e-14 -4.5 0 0.000242591 -0.00776492 0.000543514 0 -3.4 0 -1.56814e-05 -0.00767571 -0.00972025 0.25 -2.2 0.4 1.59028e-15 3.18055e-15 -3.18055e-15 -1.42109e-14 -8.3 1 0.850483 -7.74772 0.00146376 -1.42109e-14 -4.65 0 0.109409 0.00144755 -0.00433351 -1.42109e-14 -3.3 -1.42109e-14 -2.03034e-05 -0.000580554 -0.0125374 0.5 -2.15 -0.8 1.59028e-15 3.18055e-15 -3.18055e-15 1.42109e-14 -7.75 -0.2 2.3156 -12.4701 -0.0229236 0 -3.8 1.42109e-14 0.539927 -0.0059416 -0.011867 0 -3.4 0 0.477881 -0.00588508 -0.0111915 0.75 -1.75 -1.85 1.59028e-15 3.18055e-15 -3.18055e-15 0 -7.15 -1 1.43141 -9.91344 -0.0858421 0 -3 1.42109e-14 0.00877082 0.00228274 0.0033121 0 -2.35 0 0.00876993 0.00225376 0.00165755 10 0 -7.10543e-15 -3.08889 -23.0209 11.3566 1.42109e-14 -49.4477 -1 -1.10473 29.6067 -12.4969 0 -45.0523 -2 8.52331 -3.96452 4.66976 1.42109e-14 -7.5 12.5 -4.82691e-07 -2.04413e-06 -4.97624e-06 1.42109e-14 -4.44089e-16 4 -7.89025 5.03384 0.00174974 -10 1.42109e-14 0 -11.5827 -17.6131 -8.66483 -1.42109e-14 -49.4477 -1 0.256832 23.6322 -1.53747 -1.42109e-14 -45.0523 -2 6.48159 -2.37833 -1.15536 0 -7.5 12.5 5.15633e-10 -1.24354e-09 3.18055e-15 1.42109e-14 -5.42101e-20 4 -3.06557 1.3141 0.00397622 
110.894 98.718 13.4271 -2.73483 1.24263 -155.059 0 6.79575 0 -1.39453 2.18608 6.71609 0 6.79575 -1.42109e-14 0.496654 0.674404 9.81734 1.42109e-14 6.79575 0 0.761433 3.92639 6.73073 -7.10543e-15 6.79575 -1.42109e-14 1.13696 7.48554 -0.107578 7.10543e-15 14.441 1.42109e-14 -3.67041 2.59823 7.44881 7.10543e-15 9.17427 -1.42109e-14 -9.08606 5.28668 17.7193 5 17 0 0.00284249 -0.00963211 -2.22777 6.5 0 0 0.0033638 -0.00529822 -2.22481 6.5 0 -1.42109e-14 11.8646 -7.52877 2.55072 3.55271e-15 -37.9535 -2 -104.292 -60.2123 -67.4664 1.42109e-14 -30.0465 2 23.8322 -7.7376 -8.26614 -0.5 -1.5 2.65 2.71577 -11.6116 2.97144 0 -3.8 3.7 0.115524 8.91407 -0.00284397 1.42109e-14 -3 2.7 -0.0910244 -0.317594 -0.119014 1.42109e-14 -1.9 1.6 -2.12454e-06 4.81391e-06 -1.18067e-06 0 -8.3 1.9 -0.88849 -7.832 -0.0303019 -1.42109e-14 -4.5 0 -0.000372569 0.00565154 -1.6459e-06 0 -3.4 1.42109e-14 4.01642e-07 0.00557949 -1.48306e-06 -0.25 -2.2 0.4 -2.12454e-06 4.81391e-06 -1.18067e-06 0 -8.3 1 -4.21627 -6.8835 -0.170123 0 -4.65 -1.42109e-14 -8.99413e-05 1.00334e-05 -1.97997e-07 0 -3.3 1.42109e-14 -9.41844e-07 -4.83284e-06 -1.91613e-07 -0.5 -2.15 -0.8 -2.12454e-06 4.81391e-06 -1.18067e-06 0 -7.75 -0.2 -8.5214 -7.76411 -0.372845 0 -3.8 -1.42109e-14 -2.21864e-06 5.15961e-06 2.89604e-06 0 -3.4 0 -6.36111e-15 -1.59028e-15 2.38542e-15 -0.75 -1.75 -1.85 -2.12454e-06 4.81391e-06 -1.18067e-06 0 -7.15 -1 -4.36455 -13.8602 -0.0840553 0 -3 0 -0.00287614 -0.00180922 0.193032 0 -2.35 0 -0.00291372 -0.207609 0.00104273 -5 17 1.42109e-14 5.65308e-05 -0.00101824 2.36781 -6.5 2.84217e-14 0 0.000359358 -0.00535491 2.36692 -6.5 1.42109e-14 0 -9.66139 -10.2205 -2.27235 0 -37.9535 -2 110.467 -71.4474 100.465 0 -30.0465 2 4.54272 3.75832 29.7977 0.5 -1.5 2.65 -7.43778 -6.1911 -9.57598 0 -3.8 3.7 -0.0241199 9.16298 8.56268e-05 0 -3 2.7 -0.00148546 -0.0432705 0.000394421 1.42109e-14 -1.9 1.6 3.18055e-15 3.18055e-15 3.18055e-15 0 -8.3 1.9 1.48866 -10.218 0.0682056 -1.42109e-14 -4.5 1.42109e-14 0.000242591 -0.00776492 0.000543514 1.42109e-14 -3.4 0 -1.56814e-05 -0.00767571 -0.00972025 0.25 -2.2 0.4 3.18055e-15 3.18055e-15 3.18055e-15 0 -8.3 1 0.84173 -7.70766 0.00146362 1.42109e-14 -4.65 1.42109e-14 0.109409 0.00144755 -0.00433351 0 -3.3 -1.42109e-14 -2.03034e-05 -0.000580554 -0.0125374 0.5 -2.15 -0.8 3.18055e-15 3.18055e-15 3.18055e-15 0 -7.75 -0.2 2.3102 -12.4563 -0.0229224 1.42109e-14 -3.8 0 0.547384 -0.0059416 -0.011867 0 -3.4 0 0.485185 -0.00588508 -0.0111915 0.75 -1.75 -1.85 3.18055e-15 3.18055e-15 3.18055e-15 0 -7.15 -1 1.42865 -9.902 -0.0858392 0 -3 1.42109e-14 0.00877082 0.00228274 0.0033121 -1.42109e-14 -2.35 1.42109e-14 0.00876993 0.00225376 0.00165755 10 -1.42109e-14 -7.10543e-15 -3.20486 -22.8446 11.2529 0 -49.4477 -1 -1.05878 29.3556 -12.6247 1.42109e-14 -45.0523 -2 8.44387 -3.87403 4.64071 1.42109e-14 -7.5 12.5 -4.82691e-07 -2.04413e-06 -4.97624e-06 0 4.44089e-16 4 -7.80814 4.99527 0.00172196 -10 0 7.10543e-15 -11.5556 -17.4547 -8.43237 -1.42109e-14 -49.4477 -1 0.253833 23.5071 -1.52365 0 -45.0523 -2 6.49188 -2.43334 -1.58841 1.42109e-14 -7.5 12.5 5.15633e-10 -1.24354e-09 3.18055e-15 -1.42109e-14 1.35525e-20 4 -3.10919 1.18202 0.00440062 
